<svg xmlns="http://www.w3.org/2000/svg" viewBox="-0.158 -0.718 403.3 354.2" fill="#FFFFFF">
  
  <g transform="translate(0,5) scale(0.14164)">
    <path d="M127.942 0.682c-8.1 1.1-20.8 3.7-23.5 4.7c-1.1 0.5-4.7 1.7-8 2.7c-3.3 1-7.1 2.4-8.5 3.1c-1.4 0.7-3 1.3-3.7 1.3c-1.2 0-12.5 6.2-20.8 11.5c-11.1 7.1-25.9 21.2-34.9 33c-2.5 3.3-4.9 6.5-5.4 7.1c-3.5 4-15.2 27.8-15.2 30.6c0 0.8-0.4 1.8-0.8 2.3c-0.5 0.6-1.6 4.6-2.6 9c-1 4.4-2.3 9.3-2.9 11c-0.8 2.2-1.2 33.3-1.5 113.2c-0.3 109.9-0.3 110.2 1.8 114.8c2.8 6.1 6.8 8.5 14.3 8.5c6 0 8-0.8 13.7-5.3c1.9-1.5 4-3.1 4.5-3.5c0.6-0.4 3.2-2.5 5.9-4.7c4.9-3.9 14.4-11.2 19.6-15c4.2-3 20.8-15.8 26.8-20.6l5.3-4.2h84.7c86.5 0.1 91.4 0 113.2-3.8c8.8-1.6 27.1-7.6 33.5-11.1c1.7-0.9 5.9-3.2 9.5-5.1c3.6-1.8 6.7-3.6 7-3.9c0.3-0.4 4.1-3.3 8.5-6.7c7.2-5.5 12.4-10.4 19.5-18.8c5-5.9 9-11.3 9-12.1c0-0.4 0.6-1.5 1.4-2.3c1.8-2 5.1-7.9 8.8-15.6c1.6-3.3 3.3-6.8 3.8-7.7c0.6-1 1-2.3 1-2.9c0-0.6 0.6-2.5 1.4-4.2c1.2-2.9 2.8-8.1 5.6-18.7c2.9-10.8 4.2-26.2 3.7-44.1c-0.5-19.2-3.2-37.6-6.8-47.4c-6.7-18-14.2-32.7-21.8-42.3c-7.8-10-23.1-24.2-33.1-30.7c-8-5.2-16.6-9.9-20.1-11c-1.3-0.4-4.7-1.8-7.6-3.1c-2.8-1.3-5.9-2.4-6.7-2.4c-0.9 0-2.4-0.4-3.4-0.9c-1.8-1.1-10.4-2.7-21.7-4.3c-9.1-1.3-145-1.8-153.5-0.6ZM211.742 59.382c4.6 2.3 12.2 10.6 12.2 13.2c0 1 0.5 2.1 1 2.4c1.9 1.2 1.1 10.3-1.4 15.7c-4.5 10-13.6 15.8-24.9 15.8c-8 0-11.4 1.7-17.7 9.1c-8.6 10-15.7 16.6-26 24.3c-5.2 3.9-9.7 7.3-10 7.7c-0.3 0.3-1.5 1.1-2.8 1.8c-2.9 1.6-2 2.9 2.6 3.7c6.1 1.2 19.3 6.3 26.2 10.2c10.4 5.9 9.7 5.9 18.6-0.3c1.6-1.1 4.9-3.8 7.4-6.1c8.1-7.4 11.4-9.9 16.9-12.7c9-4.6 12.5-5.2 31.4-5.2c16.5-0.1 18-0.2 18.9-2c2-3.5 7-7.7 11.5-9.6c4.6-2 14.7-2.6 15.7-1c0.3 0.5 1.8 1.2 3.3 1.6c4.5 1.1 9.3 5.4 11.5 10.3c1.1 2.6 2.5 5.5 2.9 6.4c2.6 5.2-0.2 15.6-5.9 22c-5.9 6.5-10 8.3-18.7 8.3c-5.8 0-7.7-0.5-11-2.7c-4.6-2.9-10-8.7-10.9-11.6c-1.2-3.5-6.2-4.7-20.2-4.7c-7.8 0-13.7 0.4-14.5 1.1c-0.8 0.6-3.6 1.9-6.2 2.8c-7.3 2.7-26.7 18.9-26.7 22.4c0 1.5 6.6 11.5 11.7 17.9c1.9 2.3 5.8 5.9 8.6 8.1c6.6 4.9 10.7 12.7 10.7 20.2c0 2.7-0.4 5.8-0.9 6.8c-0.5 0.9-1.7 3.4-2.7 5.6c-2 4-7.9 9.4-12.7 11.4c-1.5 0.7-5.6 1.2-9 1.2c-13.4 0-23.7-10.6-23.7-24.5c0-8.2 5.3-17.7 11.6-21.3c1.5-0.8 1.2-1.6-1.9-6.3c-4.2-6.3-11.5-14.2-17.2-18.4c-7.9-6-14.3-8.7-28-11.9l-7.1-1.7l-6.4 3c-10.9 5.2-21.3 3.7-28.6-4.1c-5.2-5.4-6.8-9.5-6.8-17.3c-0.1-11.3 3.8-17.7 13.7-23c7.7-4 15-3.3 25.9 2.6c4.2 2.2 4.8 2 12.8-4c6.6-5.1 30.9-29.2 32.6-32.3c1-2 1.1-3.4 0.4-5.3c-1.5-3.9-1.2-11.8 0.6-16.1c5.8-14.1 20.5-20 33.2-13.5Z" />
  </g>

  
  </svg>